<?xml version="1.0" encoding="UTF-8" standalone="no"?>
<!-- Created with Inkscape (http://www.inkscape.org/) -->

<svg
   width="48"
   height="48"
   viewBox="0 0 12.7 12.7"
   version="1.1"
   id="svg1"
   xml:space="preserve"
   inkscape:version="1.4.3 (0d15f75, 2025-12-25)"
   sodipodi:docname="drawing.svg"
   xmlns:inkscape="http://www.inkscape.org/namespaces/inkscape"
   xmlns:sodipodi="http://sodipodi.sourceforge.net/DTD/sodipodi-0.dtd"
   xmlns="http://www.w3.org/2000/svg"
   xmlns:svg="http://www.w3.org/2000/svg"><sodipodi:namedview
     id="namedview1"
     pagecolor="#505050"
     bordercolor="#ffffff"
     borderopacity="1"
     inkscape:showpageshadow="0"
     inkscape:pageopacity="0"
     inkscape:pagecheckerboard="1"
     inkscape:deskcolor="#505050"
     inkscape:document-units="mm"
     inkscape:zoom="14.38193"
     inkscape:cx="0.83438036"
     inkscape:cy="28.264635"
     inkscape:window-width="2297"
     inkscape:window-height="1186"
     inkscape:window-x="170"
     inkscape:window-y="30"
     inkscape:window-maximized="0"
     inkscape:current-layer="layer1" /><defs
     id="defs1" /><g
     inkscape:label="Layer 1"
     inkscape:groupmode="layer"
     id="layer1"><path
       id="path1"
       style="fill:#000000;stroke-width:1.38391"
       d="M 6.2699015 0.24649658 C 6.0605357 0.24673339 5.8498914 0.36298875 5.6130941 0.59582926 C 5.1241085 1.0766442 4.9499087 1.5826793 5.0539551 2.2195028 C 5.096588 2.4804406 5.0979138 2.7708247 5.0565389 2.9021484 C 5.0389869 2.957869 5.030924 2.9832586 5.0348348 2.9925822 L 5.0353516 2.993099 C 5.0355022 2.9933143 5.0356981 2.9944584 5.0358683 2.9946493 C 5.0360583 2.9948163 5.0372089 2.9955389 5.0374186 2.9956828 L 5.0379354 2.9956828 C 5.0381851 2.9957823 5.0392159 2.9961212 5.0394857 2.9961995 C 5.045286 2.9973559 5.0556479 2.9947533 5.0699748 2.9905151 C 5.8153723 2.7700448 6.5483697 2.7511931 7.2589884 2.9341878 C 7.4912158 2.9939898 7.4934626 2.9945455 7.4801636 2.9502075 C 7.4200866 2.7500033 7.4186908 2.643775 7.4687948 2.2298381 C 7.5119568 1.873269 7.51553 1.7952969 7.494633 1.6608805 C 7.4330065 1.2644828 7.2466065 0.91816055 6.9210246 0.59427897 C 6.6874965 0.36197037 6.4792673 0.24625978 6.2699015 0.24649658 z M 6.9029378 0.95704753 C 6.9335175 0.95415281 6.9638083 0.97385678 7.0135254 1.017509 C 7.1446935 1.1326761 7.192521 1.3993435 7.1003418 1.5012004 C 7.0516952 1.5549533 7.0004279 1.5640722 6.9246419 1.5322062 C 6.828419 1.4917477 6.7640847 1.3552743 6.7628947 1.1885579 C 6.7620327 1.0676349 6.7677461 1.0501301 6.8212891 1.0040731 C 6.8549089 0.97515451 6.8791537 0.95929897 6.9029378 0.95704753 z M 5.611027 0.96273193 C 5.6359394 0.96049589 5.6606791 0.96664334 5.6838908 0.98185221 C 5.8186689 1.0701623 5.7999113 1.3618172 5.6503011 1.5012004 C 5.6234429 1.5262231 5.5750999 1.5440918 5.5345459 1.5440918 C 5.4378488 1.5440918 5.3905283 1.4669889 5.3914022 1.3120646 C 5.3924207 1.1315062 5.5030734 0.97242146 5.611027 0.96273193 z M 3.2044556 2.815332 C 3.1617778 2.8135314 3.1193815 2.814598 3.0773315 2.8184326 C 2.6201458 2.8601247 2.2076462 3.1099833 1.6128215 3.705717 C 0.97946464 4.3400417 0.4323563 5.099923 0.40514323 5.383134 C 0.39271821 5.5124443 0.43241412 5.5855146 0.53175049 5.6141276 C 0.76411452 5.6810583 1.3839453 5.4104255 2.2133016 4.8798055 C 2.3807606 4.7726655 2.5633901 4.6619858 2.6189616 4.6338257 C 2.7371463 4.573937 2.8824738 4.5665488 2.977596 4.6157389 C 3.008501 4.6317226 3.036556 4.6431246 3.0452922 4.6431274 C 3.0455541 4.643099 3.046632 4.6426682 3.0468424 4.6426107 L 3.0473592 4.6426107 L 3.047876 4.6420939 C 3.051173 4.6383369 3.0732456 4.5975664 3.0969686 4.5511434 C 3.2796018 4.1937362 3.7232278 3.7143609 4.104659 3.462321 L 4.2452189 3.3693034 L 4.1211955 3.2566488 C 3.8154378 2.9778824 3.5031996 2.8279366 3.2044556 2.815332 z M 9.3570516 2.8184326 C 9.0943358 2.8266147 8.8448996 2.9228742 8.6077433 3.1067871 C 8.4739719 3.2105262 8.3385698 3.3363511 8.334375 3.3605184 L 8.334375 3.3610352 L 8.334375 3.3615519 C 8.3344506 3.3617325 8.3347791 3.3628966 8.3348918 3.3631022 C 8.3438492 3.3769171 8.4187599 3.4354033 8.5085246 3.4979777 C 8.7658756 3.6773738 9.1407974 4.0630003 9.3203613 4.3330688 C 9.4026202 4.456788 9.4759599 4.5775291 9.4836589 4.6017863 C 9.4985699 4.6487683 9.5263809 4.6592775 9.5472209 4.6255575 C 9.5541989 4.6142665 9.5969095 4.59489 9.6423055 4.582666 C 9.7802383 4.5455246 9.8883983 4.589888 10.324951 4.8622355 C 10.984644 5.2737909 11.307302 5.4429989 11.647351 5.5557332 C 11.882307 5.6336202 12.043692 5.6367308 12.126392 5.5655518 C 12.176682 5.5221983 12.185252 5.4994035 12.183752 5.4125895 C 12.180687 5.2407049 11.977507 4.8940096 11.580172 4.3821615 C 11.342063 4.0754287 10.665049 3.3877209 10.439156 3.2230591 C 10.054683 2.9428029 9.6948291 2.8079128 9.3570516 2.8184326 z M 6.1954875 3.0824992 C 5.5979108 3.0937602 5.0056475 3.2399229 4.5113525 3.5186483 C 3.5902621 4.038037 3.0045662 4.9510305 2.813265 6.1655151 C 2.7603735 6.5012988 2.7604102 7.2584716 2.813265 7.5959188 C 2.8997009 8.1477599 3.0436581 8.6071981 3.2804199 9.0878174 C 3.9054879 10.356687 4.9868501 11.211151 6.0973022 11.313005 C 6.7656206 11.374305 7.4990402 11.097821 8.1772786 10.528556 C 8.8454531 9.9677378 9.3897554 9.0839889 9.6200846 8.1855469 C 9.9628295 6.8486048 9.7768375 5.4965038 9.1131388 4.4973999 C 8.8457931 4.0949493 8.3762218 3.6870793 7.9132121 3.4545695 C 7.3961241 3.1949031 6.7930641 3.0712381 6.1954875 3.0824992 z M 4.5351237 4.8146932 C 4.9531745 4.8146932 5.0631712 4.8204916 5.0823771 4.843632 C 5.0993342 4.8640703 5.1049524 5.033624 5.1009806 5.4187907 L 5.0952962 5.9650106 L 4.5459757 5.970695 C 4.1363895 5.974883 3.9899511 5.9696752 3.9708171 5.9505412 C 3.9520441 5.9317747 3.9449788 5.7843507 3.9449788 5.402771 C 3.9449788 4.9565268 3.9496938 4.8766409 3.9780518 4.8482829 C 4.006415 4.8199229 4.0873917 4.8146932 4.5351237 4.8146932 z M 4.1351481 5.0048625 L 4.1351481 5.4063883 L 4.1351481 5.8073975 L 4.5304728 5.8017131 L 4.9263143 5.7960286 L 4.9319987 5.4007039 L 4.9376831 5.0048625 L 4.5361572 5.0048625 L 4.1351481 5.0048625 z M 5.6585693 5.0932292 C 5.6952057 5.0565932 8.6734267 5.0565932 8.7100627 5.0932292 C 8.7501877 5.1333539 8.7408197 5.2322855 8.6945597 5.2570435 C 8.6675392 5.2714975 8.1540909 5.2792643 7.1763062 5.2792643 C 5.8617079 5.2792643 5.6958338 5.2757044 5.6663208 5.2461914 C 5.6269718 5.2068357 5.6230593 5.1287392 5.6585693 5.0932292 z M 7.1716553 5.5376465 C 8.2665815 5.5337079 8.6855718 5.5384094 8.7064453 5.5557332 C 8.7498932 5.5917944 8.7425233 5.6959458 8.6945597 5.7216146 C 8.6675405 5.7360686 8.1549424 5.7433187 7.1783732 5.7433187 C 5.7225929 5.7433187 5.7025147 5.7427042 5.6642537 5.7004272 C 5.6335267 5.6664813 5.6296592 5.645648 5.6456502 5.600175 L 5.665804 5.5428141 L 7.1716553 5.5376465 z M 5.1976156 6.6295695 C 5.2373242 6.6295695 5.300736 6.7048414 5.2921834 6.7417074 C 5.2862349 6.7673676 4.8879489 7.2164581 4.6488118 7.4672445 C 4.6122521 7.5055844 4.5714513 7.5370076 4.5578613 7.5370076 C 4.5576511 7.5370076 4.557066 7.53704 4.5568278 7.5370076 C 4.5233444 7.5289038 4.27192 7.2686283 4.2152466 7.1825073 C 4.1738626 7.1196204 4.1933044 7.0627791 4.2638224 7.0403971 C 4.2993215 7.0291293 4.3343237 7.051778 4.4338379 7.1499512 L 4.5594116 7.2734578 L 4.6570801 7.1675212 C 4.963481 6.8376537 5.1727646 6.6295695 5.1976156 6.6295695 z M 4.4601929 6.6507568 L 4.924764 6.6507568 L 4.8312297 6.7458415 L 4.7382121 6.8404093 L 4.4364217 6.8404093 L 4.1351481 6.8404093 L 4.1351481 7.2414185 L 4.1351481 7.6424276 L 4.5361572 7.6424276 L 4.9366496 7.6424276 L 4.9366496 7.5199544 C 4.9366496 7.4050425 4.9421089 7.3927398 5.0213989 7.3153158 L 5.1056315 7.2331502 L 5.1056315 7.5075521 C 5.1056315 7.6928274 5.0974081 7.7901774 5.0803101 7.8072754 C 5.0619602 7.8256284 4.9091239 7.8325968 4.5253052 7.8325968 C 4.1414864 7.8325968 3.9886513 7.8256244 3.9703003 7.8072754 L 3.9697835 7.8067586 C 3.9348561 7.7556662 3.9348561 6.7282041 3.9697835 6.6771118 L 3.9697835 6.6765951 L 3.9703003 6.6760783 C 3.9884612 6.6579053 4.1271184 6.6507568 4.4601929 6.6507568 z M 7.1918091 6.9251587 C 8.3245081 6.9251587 8.6908457 6.9312631 8.7100627 6.9504801 C 8.7239967 6.9644061 8.7353841 7.0004026 8.7353841 7.0305786 C 8.7353841 7.0607536 8.7239907 7.0967491 8.7100627 7.1106771 C 8.6908414 7.1299001 8.3224571 7.1359985 7.180957 7.1359985 C 5.7157733 7.1359985 5.676235 7.1349422 5.654952 7.0951742 C 5.624317 7.0379245 5.6277708 6.9967816 5.6663208 6.9582316 C 5.6958411 6.9287116 5.8631251 6.9251587 7.1918091 6.9251587 z M 7.180957 7.3892131 C 8.3224571 7.3892131 8.6908417 7.3953135 8.7100627 7.4145345 C 8.7501877 7.4546592 8.7408197 7.5535908 8.6945597 7.5783488 C 8.6675391 7.5928028 8.1546077 7.6005697 7.1768229 7.6005697 C 5.8622246 7.6005697 5.6958338 7.596493 5.6663208 7.56698 C 5.6277668 7.5284313 5.624312 7.4872874 5.654952 7.4300374 C 5.6762351 7.3902704 5.7157735 7.3892131 7.180957 7.3892131 z M 4.5532104 8.6377157 A 0.41600001 0.41627494 0 0 1 4.9692057 9.0542277 A 0.41600001 0.41627494 0 0 1 4.5532104 9.470223 A 0.41600001 0.41627494 0 0 1 4.1372152 9.0542277 A 0.41600001 0.41627494 0 0 1 4.5532104 8.6377157 z M 7.1918091 8.7607056 C 8.3245081 8.7607056 8.6908457 8.76681 8.7100627 8.786027 C 8.7239967 8.799953 8.7353841 8.8364663 8.7353841 8.8666423 C 8.7353841 8.8968173 8.7239907 8.9328127 8.7100627 8.9467407 C 8.6908414 8.9659637 8.3224571 8.9720622 7.180957 8.9720622 C 5.7157733 8.9720622 5.676235 8.9710058 5.654952 8.9312378 C 5.624317 8.8739881 5.6277708 8.8328452 5.6663208 8.7942952 C 5.6958411 8.7647752 5.8631251 8.7607056 7.1918091 8.7607056 z M 6.6357707 9.2252767 C 7.4585591 9.2252767 7.5755548 9.2292006 7.6047038 9.2583496 C 7.6229408 9.2765876 7.6377767 9.3091426 7.6377767 9.3306966 C 7.6377767 9.3522506 7.6229418 9.3848056 7.6047038 9.4030436 C 7.575555 9.4321936 7.4585591 9.4361165 6.6357707 9.4361165 C 5.8129823 9.4361165 5.6954698 9.4321926 5.6663208 9.4030436 C 5.6480838 9.3848056 5.6332479 9.3522506 5.6332479 9.3306966 C 5.6332479 9.3091426 5.6480818 9.2765876 5.6663208 9.2583496 C 5.6954694 9.2291996 5.8129823 9.2252767 6.6357707 9.2252767 z M 9.1090047 9.9110229 L 9.064563 9.9725179 C 8.854704 10.263134 8.4898024 10.637943 8.2036336 10.856185 L 8.0610067 10.964705 L 8.110616 11.018449 C 8.2138634 11.129038 8.2320315 11.194809 8.2170695 11.404989 C 8.2042065 11.585678 8.207078 11.604379 8.253243 11.673189 C 8.2864371 11.722661 8.3490203 11.769313 8.4434123 11.814783 C 8.5236534 11.853434 8.6430189 11.937223 8.7203979 12.009603 C 8.7951344 12.079518 8.8838262 12.151316 8.9172852 12.168766 C 9.019 12.221806 9.1241722 12.209427 9.2087402 12.135177 C 9.3614866 12.001064 9.4632798 11.509984 9.4464518 10.986926 C 9.4344605 10.614222 9.4041839 10.498523 9.2257935 10.14305 L 9.1090047 9.9110229 z M 3.4519857 9.9533976 C 3.4517525 9.9534709 3.4512033 9.9538051 3.4509521 9.9539144 C 3.434822 9.9626001 3.3864247 10.034816 3.3398478 10.121863 C 3.140461 10.49448 3.0800582 10.818737 3.120223 11.299052 C 3.1640515 11.823181 3.2723554 12.125066 3.4385498 12.185819 C 3.5507467 12.226833 3.6784603 12.167744 3.8333577 12.003402 C 3.907929 11.924287 3.9951846 11.861264 4.1056925 11.806514 C 4.328933 11.69591 4.3521346 11.650883 4.3335856 11.366231 C 4.3198516 11.155446 4.3202542 11.154454 4.3806112 11.081494 C 4.4139402 11.041214 4.4478755 11.005296 4.4565755 11.001396 C 4.4978473 10.983053 4.4570559 10.934939 4.3010295 10.818461 C 4.1068776 10.673521 3.7285768 10.292465 3.5780762 10.09034 C 3.5236595 10.017257 3.4693455 9.9570893 3.4545695 9.9533976 C 3.454352 9.9533677 3.4532155 9.9533976 3.4530192 9.9533976 L 3.4525024 9.9533976 L 3.4519857 9.9533976 z M 5.7872437 11.540381 C 5.7851546 11.540466 5.7836784 11.540592 5.7825928 11.540898 L 5.782076 11.541414 L 5.7815592 11.541414 L 5.7810425 11.541931 L 5.7810425 11.542448 C 5.7810425 11.56509 6.2314588 12.276138 6.2605998 12.299508 C 6.3032245 12.333678 6.3353696 12.316969 6.3815226 12.236979 C 6.4030772 12.199623 6.5047524 12.034166 6.6073486 11.86956 C 6.7099447 11.704954 6.7939006 11.561613 6.7939006 11.551233 L 6.7939006 11.550716 L 6.7939006 11.550199 L 6.7933838 11.550199 L 6.7933838 11.549683 L 6.792867 11.549166 L 6.7923503 11.548649 L 6.7918335 11.548649 C 6.7794821 11.542631 6.7255964 11.546718 6.6621257 11.560018 C 6.4935702 11.595345 6.1071267 11.595111 5.9231527 11.559501 C 5.8595012 11.547127 5.8053492 11.53964 5.7872437 11.540381 z " /></g></svg>
